/* XPM */
static char *lens[] = {
/* width height num_colors chars_per_pixel */
"    32    32      256            2",
/* colors */
"`` c #041614",
"`. c #7c8a54",
"`# c #3c4e2c",
"`a c #ccce94",
"`b c #5c723c",
"`c c #9ca67c",
"`d c #1c322c",
"`e c #445e54",
"`f c #8ca25c",
"`g c #6c6e44",
"`h c #2c423c",
"`i c #d4e6e4",
"`j c #9cb6b4",
"`k c #0c221c",
"`l c #848e8c",
"`m c #444e3c",
"`n c #c4dadc",
"`o c #446e64",
"`p c #3c5e5c",
"`q c #2c3224",
"`r c #1c261c",
"`s c #2c4e4c",
"`t c #647e6c",
"`u c #5c7a7c",
"`v c #4c5e5c",
"`w c #84a29c",
"`x c #c4c28c",
"`y c #648e94",
"`z c #b4c6c4",
"`A c #344244",
"`B c #546e6c",
"`C c #345654",
"`D c #94aeac",
"`E c #c4c6c4",
"`F c #9ca2a4",
"`G c #74825c",
"`H c #7c9694",
"`I c #1c3234",
"`J c #9caeac",
"`K c #142a24",
"`L c #446664",
"`M c #94a29c",
"`N c #748a84",
"`O c #849a94",
"`P c #1c3a34",
"`Q c #d4d6d4",
"`R c #648284",
"`S c #547674",
"`T c #041a0c",
"`U c #2c4a3c",
"`V c #446274",
"`W c #3c4e4c",
"`X c #b4b6b4",
"`Y c #7c928c",
"`Z c #ecf2f4",
"`0 c #acb6b4",
"`1 c #14221c",
"`2 c #445e5c",
"`3 c #1c2e1c",
"`4 c #c4cecc",
"`5 c #b4bebc",
"`6 c #445254",
"`7 c #2c3a24",
"`8 c #344e4c",
".` c #4c6664",
".. c #bccecc",
".# c #acb2b4",
".a c #141e1c",
".b c #8caaac",
".c c #344a3c",
".d c #5c6e6c",
".e c #3c5654",
".f c #9caaa4",
".g c #a4aeac",
".h c #94aaa4",
".i c #7c8a8c",
".j c #949a9c",
".k c #243a34",
".l c #d4dedc",
".m c #c4c2c4",
".n c #2c3e3c",
".o c #647274",
".p c #24424c",
".q c #849694",
".r c #4c766c",
".s c #64867c",
".t c #8ca29c",
".u c #243234",
".v c #6c8284",
".w c #0c1e1c",
".x c #bcbebc",
".y c #34525c",
".z c #3c562c",
".A c #e4eeec",
".B c #a4bebc",
".C c #0c261c",
".D c #4c562c",
".E c #ccdedc",
".F c #3c625c",
".G c #24261c",
".H c #6c7e7c",
".I c #5c8284",
".J c #bcc6c4",
".K c #cccacc",
".L c #747e7c",
".M c #9cb2ac",
".N c #142a2c",
".O c #748a94",
".P c #8c9e9c",
".Q c #5c7674",
".R c #2c4a4c",
".S c #f4fefc",
".T c #acbebc",
".U c #142224",
".V c #44625c",
".W c #1c2e2c",
".X c #cccecc",
".Y c #343a1c",
".Z c #34524c",
".0 c #546664",
".1 c #3c5a54",
".2 c #243e44",
".3 c #dce2e4",
".4 c #647a7c",
".5 c #5c764c",
".6 c #545e3c",
".7 c #94aa6c",
".8 c #2c4644",
"#` c #dce6e4",
"#. c #243a1c",
"## c #8c967c",
"#a c #445a44",
"#b c #748684",
"#c c #344a4c",
"#d c #3c5244",
"#e c #445a5c",
"#f c #94a26c",
"#g c #4c6e6c",
"#h c #a4b6b4",
"#i c #ccd6d4",
"#j c #546264",
"#k c #6c8a8c",
"#l c #0c1a14",
"#m c #bcbabc",
"#n c #0c1214",
"#o c #1c262c",
"#p c #647e7c",
"#q c #446a74",
"#r c #5c7274",
"#s c #6c7674",
"#t c #242e14",
"#u c #3c4a34",
"#v c #a4aaac",
"#w c #343e34",
"#x c #8c9694",
"#y c #4c5a3c",
"#z c #7c929c",
"#A c #94aab4",
"#B c #4c767c",
"#C c #fcfefc",
"#D c #242e2c",
"#E c #7c8684",
"#F c #7c8e5c",
"#G c #5c7e7c",
"#H c #4c6264",
"#I c #b4cac4",
"#J c #34463c",
"#K c #54726c",
"#L c #94b2ac",
"#M c #c4cac4",
"#N c #9ca6a4",
"#O c #7c9a9c",
"#P c #1c3636",
"#Q c #142e1c",
"#R c #94a6a4",
"#S c #748e8c",
"#T c #849e9c",
"#U c #d4dadc",
"#V c #3c5254",
"#W c #acbab8",
"#X c #142614",
"#Y c #c4d2d4",
"#Z c #b4c2c4",
"#0 c #2c3e2c",
"#1 c #4c6a67",
"#2 c #bcd2d0",
"#3 c #5c7264",
"#4 c #a4b2b4",
"#5 c #243e3c",
"#6 c #d4e2e2",
"#7 c #244654",
"#8 c #8ca6a4",
"a` c #6c8685",
"a. c #bcc2c2",
"a# c #3c5a34",
"aa c #ccd2d4",
"ab c #a4babc",
"ac c #ccdadc",
"ad c #5c763c",
"ae c #1c2a1c",
"af c #648684",
"ag c #ecf6f4",
"ah c #445654",
"ai c #7c8e8c",
"aj c #949e9c",
"ak c #647674",
"al c #243634",
"am c #142e2c",
"an c #142624",
"ao c #dceae4",
"ap c #6c8e8c",
"aq c #0c1e14",
"ar c #64827c",
"as c #2c4244",
"at c #0c2224",
"au c #3c5e64",
"av c #2c4e54",
"aw c #5c7a84",
"ax c #84a2a4",
"ay c #34565c",
"az c #9caeb4",
"aA c #44666c",
"aB c #94a2a4",
"aC c #748a8c",
"aD c #849a9c",
"aE c #1c3a3c",
"aF c #54767c",
"aG c #2c4a44",
"aH c #7c9294",
"aI c #445e64",
"aJ c #344e54",
"aK c #141e24",
"aL c #3c565c",
"aM c #9caaac",
"aN c #94aaac",
"aO c #243a3c",
"aP c #84969c",
"aQ c #8ca2a4",
"aR c #0c1e24",
"aS c #0c2624",
"aT c #3c6264",
"aU c #9cb2b4",
"aV c #5c767c",
"aW c #2c4a54",
"aX c #446264",
"aY c #343a24",
"aZ c #345254",
"a0 c #3c5a5c",
"a1 c #545e44",
"a2 c #4c6e74",
"a3 c #b4cacc",
"a4 c #344644",
"a5 c #547274",
"a6 c #94b2b4",
"a7 c #c4cacc",
"a8 c #9ca6ac",
/* pixels */
".m.x.m.x.m.x.m.x.m.x.m.x.m.x.m.x.m.x.m.x.m.x.m.x.m.x.m.x.m.x.m.x",
"a..m.x.m.x.m.x.m.x.m.x.m.x.m.x.m.x.m.x.m.x.m.x.m.x.m.x.m.x.m.x.m",
".m.x.m.x.m.x.m.x.m.x.m.x.#`X.x.x.m.x.m.x.m.x.m.x.m.x.m.x.m.x.m.x",
".x.m.x.m.x.m.x.m`5`0a``N`2.4ar#ha7`E.m.x.m.x.m.x.m.x.m.x.m.x.m.m",
".m.x.m.x.m.x.m`5#8ai`N.Q#S.`#g.var`4aa.K.x.m.x.m.x.m.x.m.x.m.x.x",
"a..m.x.m.x.m#W#R#4.f`J#TakaHa`.MaUaQ#T`Da7`E.x.m.x.m.x.m.x.m.m.x",
".m.x.m.x.m#W`D`5#i#i`0az.h`j`waV`8.8.2.8aJa5`5.m.x.m.x.m.x.m.x.m",
".x.m.x.m.#`D.f.Jac#Uac`5#W.P.dah#c`h.R.1#ga5a5.h`E.x.m.x.m.x.m.x",
".m.x.m.x.P`H.f`za7ac.3.l`5ajai.o.0`R`D#2`i.E#2.T`j.x.m.x.m.x.m.x",
"a..m.x`Xa`.Q`OaM#Z#M.l.Xa7`5#v#R.Tao`Z.S`Z#6#2#Y.l#Y`5.m.x.m.x.m",
".m.x.m`M`t`B.QaiaU#Ya..J`4a7`4.3`Zag`iaN#G.`a5a5`u`HaU`4.m.x.m.x",
".x.m.xaB#1`L`B.4ab#h.P`Xa.aa.A`Z`Z.E.q`vaha5`S.Qa5#Ha0aD#U.m.x.m",
".m.x.m#R#ga0.V#k`D#r.L#x`0.3`Z`Z.l.##E#b#S#S#p`ua`#ka5.naD`E.x.m",
"a..m.x.P`L#K.V#G#k`W#H#s.T.A.A.l`5`F#NaU`R`8#5#5`8.`af.Qasa..x.m",
".m.x.m`O.1#1#g#8`S.uas.Q#6.A#i.#`F#Raz#r.n.W.U.U#D.na4apav#r`E.x",
".x.m.x`M`2aZ`Ba6.1.WaO#Oag#6#R#baP#A#r`A.W`3`K`r.G.u#D`p#BaO`Ea.",
".m.x.m`X`B#1`CaH.8`I.k.B.S..`B#j#z.Oa4`W#J`7`7#0`7#u#JaO`yaEaB.m",
"a..m.x.x#R#r`S#OaGam.8`n`ZaU.8aLaf#eal.da1.Y.z`#`##y#d`d#B.2#ba.",
".m.x.m.m.x`M#G#T.Z.N`8#6ag`H#P`paF#P#D#w`7`g`.ad`b`G#a`I#q#P.H.m",
".x.m.x.m.x.m#N`waXam`8.Eagaf.N.FaT`1`K`r#t.6#F`f#f`c.c#P#q.N`Na.",
".m.x.m.x.m.x.m#4#K.W.p#I.Aaf`k`oaX.waqaq#X#..5.7`a###D.pa0at.t.m",
"a..m.x.m.x.m.x.m`0.8#P.b#``Hat.r.ram#l.C#X`3a##f`x`m.a`V#7an.J.x",
".m.x.m.x.m.x.m.x.m`5`6#G.E`D.NaA`R.Z.w```T.C`U`t#a.a.k`uaR`2`E.m",
".x.m.x.m.x.m.x.m.x.m.x`laNa3#c.R`Ra2.R#Q.w`K.k#PaK#PaVaO`1`5.m.x",
".m.x.m.x.m.x.m.x.m.x.m.x.#`5#OaO`L#1#g.e#P`I.W.WaZ.`#5#n#N.x.m.m",
"a..m.x.m.x.m.x.m.x.m.x.m.x.x#W.s.Z`p`L#1`Va0au`B#eam.U.h.m.x.x.m",
".m.x.m.x.m.x.m.x.m.x.m.x.m.x.m`X.t.1`8aJaZ.y.8alan`2.J.m.x.m.x.m",
".x.m.x.m.x.m.x.m.x.m.x.m.x.m.x.ma.`5`O#GaI#VaI.H#h.K.x.m.x.m.x.m",
".m.x.m.x.m.x.m.x.m.x.m.x.m.x.m.x.m.x.m`E.Xaaa7.m.x.m.x.m.x.m.x.m",
"a..m.x.m.x.m.x.m.x.m.x.m.x.m.x.m.x.m.x.m.x.m.x.ma..m.x.m.x.m.x.m",
".m.x.m.x.m.x.m.x.m.x.m.x.m.x.m.x.m.x.m.x.m.x.m.x.m.x.m.x.m.x.m.x",
".x.m.x.m.x.m.x.m.x.m.x.m.x.m.x.m.x.m.x.m.x.m.x.m.x.m.x.m.x.m.x.m"
};
